<?xml version="1.0" encoding="UTF-8"?>
<svg id="Layer_2" data-name="Layer 2" xmlns="http://www.w3.org/2000/svg" version="1.1" viewBox="0 0 640.1 644.9">
  <defs>
    <style>
      .cls-1 {
        fill: #000;
      }

      .cls-1, .cls-2, .cls-3, .cls-4 {
        stroke-width: 0px;
      }

      .cls-2 {
        fill: #3056a5;
      }

      .cls-3 {
        fill: #cac8c8;
      }

      .cls-4 {
        fill: #6b6b6a;
      }
    </style>
  </defs>
  <polygon class="cls-1" points="269.6 78.5 269.6 36.2 248.2 36.2 248.2 13.5 85.6 13.5 85.6 35.4 62.2 35.4 62.2 57 41.6 57 41.6 292.2 60.3 292.2 60.3 314.6 76.6 314.6 76.6 334.2 232.2 334.2 232.2 313.1 252.9 313.1 252.9 294.9 269.6 294.9 269.6 153.9 248.2 153.9 225.3 153.9 152.6 153.9 152.6 202.9 225.3 202.9 225.3 269.5 205.6 269.5 205.6 292.1 105.3 292.1 105.3 269.5 85.6 269.5 85.6 78.5 105.3 78.5 105.3 57.3 220.9 57.3 220.9 78.5 269.6 78.5"/>
  <rect class="cls-3" x="435.6" y="22.7" width="32" height="32"/>
  <rect class="cls-3" x="495" y="65" width="32" height="32"/>
  <rect class="cls-3" x="551.6" y="108.3" width="32" height="32"/>
  <rect class="cls-3" x="423.6" y="98.7" width="32" height="32"/>
  <rect class="cls-3" x="479" y="145.3" width="32" height="32"/>
  <rect class="cls-3" x="347.6" y="67" width="32" height="32"/>
  <rect class="cls-3" x="347.6" y="145.3" width="32" height="32"/>
  <rect class="cls-3" x="403.6" y="182.7" width="32" height="32"/>
  <rect class="cls-3" x="447" y="218.7" width="32" height="32"/>
  <rect class="cls-3" x="376.3" y="256" width="32" height="32"/>
  <rect class="cls-3" x="312" y="285.1" width="32" height="32"/>
  <rect class="cls-3" x="331.6" y="223.7" width="32" height="32"/>
  <rect class="cls-2" x="266" y="339.9" width="32" height="32"/>
  <rect class="cls-2" x="209.3" y="371.9" width="32" height="32"/>
  <rect class="cls-2" x="144.7" y="411.2" width="32" height="32"/>
  <rect class="cls-2" x="76.7" y="469.9" width="32" height="32"/>
  <rect class="cls-2" y="519.9" width="32" height="32"/>
  <rect class="cls-2" x="56.7" y="557.2" width="32" height="32"/>
  <rect class="cls-2" x="116.7" y="579.9" width="32" height="32"/>
  <rect class="cls-2" x="189.3" y="525.2" width="32" height="32"/>
  <rect class="cls-2" x="132.7" y="503.9" width="32" height="32"/>
  <rect class="cls-2" x="193.3" y="443.2" width="32" height="32"/>
  <polygon class="cls-2" points="249.6 65 249.6 22.7 228.3 22.7 228.3 0 65.6 0 65.6 21.9 42.3 21.9 42.3 43.5 21.6 43.5 21.6 278.7 40.3 278.7 40.3 301.1 56.7 301.1 56.7 320.7 212.3 320.7 212.3 299.6 232.9 299.6 232.9 281.3 249.6 281.3 249.6 140.3 228.3 140.3 205.3 140.3 132.7 140.3 132.7 189.3 205.3 189.3 205.3 256 185.6 256 185.6 278.5 85.4 278.5 85.4 256 65.6 256 65.6 65 85.4 65 85.4 43.8 201 43.8 201 65 249.6 65"/>
  <path class="cls-4" d="M467.6,425.2h-16.5v-18.6h-16.5v-18.6h-94.3v18.6h-19.4v17.9h-19.1v191.4h20.9v11h13.9v18h96.5v-18h16v-11h18.3v-190.7h0ZM410.8,607.7h-49.6v-19.2h-17.2v-146.1h12.7v-17.2h54.7v20.9h23.1v142.3h-23.9v19.2h0Z"/>
  <path class="cls-1" d="M454,404.9h-16.5v-18.6h-16.5v-18.6h-94.3v18.6h-19.4v17.9h-19.1v191.4h20.9v11h13.9v18h96.5v-18h16v-11h18.3v-190.7h0ZM397.2,587.4h-49.6v-19.2h-17.2v-146.1h12.7v-17.2h54.7v20.9h23.1v142.4h-23.9v19.2h0Z"/>
  <polygon class="cls-4" points="640.1 463.4 640.1 424.1 628.1 424.1 628.1 406.5 610.1 406.5 610.1 387.9 518.1 387.9 518.1 408.1 506.1 408.1 506.1 424.1 495.1 424.1 495.1 500.9 512.8 500.9 512.8 516.4 530.5 516.4 530.5 531.9 589.1 531.9 589.1 556.1 603.1 556.1 603.1 589.9 589.1 589.9 589.1 607.5 546.5 607.5 546.5 593.4 530.5 593.4 530.5 572.1 495.1 572.1 495.1 609.4 514.5 609.4 514.5 625.4 526.3 625.4 526.3 644.9 610.1 644.9 610.1 625.1 624.4 625.1 624.4 607.7 640.1 607.7 640.1 531.9 624.4 531.9 624.4 515.7 610.1 515.7 610.1 499.6 546.5 499.6 546.5 482.8 530.5 482.8 530.5 443.8 546.5 443.8 546.5 425.2 589.1 425.2 589.1 453.9 608.6 453.9 608.6 463.4 640.1 463.4"/>
  <polygon class="cls-1" points="620.6 443.2 620.6 403.9 608.6 403.9 608.6 386.3 590.6 386.3 590.6 367.7 498.6 367.7 498.6 387.9 486.6 387.9 486.6 403.9 475.6 403.9 475.6 480.7 493.3 480.7 493.3 496.2 511 496.2 511 511.7 569.6 511.7 569.6 535.9 583.6 535.9 583.6 569.7 569.6 569.7 569.6 587.3 527 587.3 527 573.2 511 573.2 511 551.9 475.6 551.9 475.6 589.2 495 589.2 495 605.2 506.8 605.2 506.8 624.7 590.6 624.7 590.6 604.9 604.9 604.9 604.9 587.4 620.6 587.4 620.6 511.7 604.9 511.7 604.9 495.5 590.6 495.5 590.6 479.4 527 479.4 527 462.5 511 462.5 511 423.6 527 423.6 527 404.9 569.6 404.9 569.6 433.7 589.1 433.7 589.1 443.2 620.6 443.2"/>
</svg>