<?xml version="1.0" encoding="UTF-8"?>
<svg id="Layer_2" data-name="Layer 2" xmlns="http://www.w3.org/2000/svg" version="1.1" viewBox="0 0 897.7 921.5">
  <defs>
    <style>
      .cls-1 {
        fill: #000;
      }

      .cls-1, .cls-2, .cls-3, .cls-4, .cls-5, .cls-6, .cls-7 {
        stroke-width: 0px;
      }

      .cls-2 {
        fill: #eeefef;
      }

      .cls-3 {
        fill: #3056a5;
      }

      .cls-4 {
        fill: #979897;
      }

      .cls-5 {
        fill: #fff;
      }

      .cls-6 {
        fill: #cac8c8;
      }

      .cls-7 {
        fill: #6b6b6a;
      }
    </style>
  </defs>
  <rect class="cls-2" x="44.4" y="43.7" width="809.6" height="831.1"/>
  <polygon class="cls-1" points="406.4 222.2 406.4 179.9 385 179.9 385 157.2 222.4 157.2 222.4 179.1 199 179.1 199 200.6 178.4 200.6 178.4 435.9 197.1 435.9 197.1 458.3 213.4 458.3 213.4 477.9 369 477.9 369 456.8 389.7 456.8 389.7 438.5 406.4 438.5 406.4 297.5 385 297.5 362.1 297.5 289.4 297.5 289.4 346.5 362.1 346.5 362.1 413.2 342.4 413.2 342.4 435.7 242.1 435.7 242.1 413.2 222.4 413.2 222.4 222.2 242.1 222.2 242.1 201 357.7 201 357.7 222.2 406.4 222.2"/>
  <rect class="cls-1" x="875.5" y="21.5" width="22.2" height="900"/>
  <rect class="cls-1" x="22.1" y="896.3" width="875.6" height="25.2"/>
  <rect class="cls-4" x="854" y="43.7" width="21.5" height="852.6"/>
  <rect class="cls-4" x="44.4" y="874.8" width="831.1" height="21.5"/>
  <rect class="cls-5" x="22.1" y="21.5" width="853.3" height="22.2"/>
  <rect class="cls-5" x="22.1" y="21.5" width="22.2" height="874.8"/>
  <rect class="cls-6" width="897.7" height="21.5"/>
  <rect class="cls-6" width="22.1" height="921.5"/>
  <rect class="cls-6" x="572.4" y="166.3" width="32" height="32"/>
  <rect class="cls-6" x="631.8" y="208.7" width="32" height="32"/>
  <rect class="cls-6" x="688.4" y="252" width="32" height="32"/>
  <rect class="cls-6" x="560.4" y="242.3" width="32" height="32"/>
  <rect class="cls-6" x="615.8" y="289" width="32" height="32"/>
  <rect class="cls-6" x="484.4" y="210.7" width="32" height="32"/>
  <rect class="cls-6" x="484.4" y="289" width="32" height="32"/>
  <rect class="cls-6" x="540.4" y="326.3" width="32" height="32"/>
  <rect class="cls-6" x="583.8" y="362.3" width="32" height="32"/>
  <rect class="cls-6" x="513.1" y="399.7" width="32" height="32"/>
  <rect class="cls-6" x="448.8" y="428.7" width="32" height="32"/>
  <rect class="cls-6" x="468.4" y="367.3" width="32" height="32"/>
  <rect class="cls-3" x="402.8" y="483.6" width="32" height="32"/>
  <rect class="cls-3" x="346.1" y="515.6" width="32" height="32"/>
  <rect class="cls-3" x="281.5" y="554.9" width="32" height="32"/>
  <rect class="cls-3" x="213.5" y="613.6" width="32" height="32"/>
  <rect class="cls-3" x="136.8" y="663.6" width="32" height="32"/>
  <rect class="cls-3" x="193.5" y="700.9" width="32" height="32"/>
  <rect class="cls-3" x="253.5" y="723.6" width="32" height="32"/>
  <rect class="cls-3" x="326.1" y="668.9" width="32" height="32"/>
  <rect class="cls-3" x="269.5" y="647.6" width="32" height="32"/>
  <rect class="cls-3" x="330.1" y="586.9" width="32" height="32"/>
  <polygon class="cls-3" points="386.4 208.7 386.4 166.3 365.1 166.3 365.1 143.7 202.4 143.7 202.4 165.6 179.1 165.6 179.1 187.1 158.4 187.1 158.4 422.3 177.1 422.3 177.1 444.7 193.5 444.7 193.5 464.3 349.1 464.3 349.1 443.3 369.7 443.3 369.7 425 386.4 425 386.4 284 365.1 284 342.1 284 269.5 284 269.5 333 342.1 333 342.1 399.7 322.4 399.7 322.4 422.2 222.2 422.2 222.2 399.7 202.4 399.7 202.4 208.7 222.2 208.7 222.2 187.5 337.8 187.5 337.8 208.7 386.4 208.7"/>
  <path class="cls-7" d="M604.4,568.8h-16.5v-18.6h-16.5v-18.6h-94.3v18.6h-19.4v17.9h-19.1v191.4h20.9v11h13.9v18h96.5v-18h16v-11h18.3v-190.7h0ZM547.6,751.3h-49.6v-19.2h-17.2v-146.1h12.7v-17.2h54.7v20.9h23.1v142.3h-23.9v19.2h0Z"/>
  <path class="cls-1" d="M590.8,548.6h-16.5v-18.6h-16.5v-18.6h-94.3v18.6h-19.4v17.9h-19.1v191.4h20.9v11h13.9v18h96.5v-18h16v-11h18.3v-190.7h0ZM534,731.1h-49.6v-19.2h-17.2v-146.1h12.7v-17.2h54.7v20.9h23.1v142.4h-23.9v19.2h0Z"/>
  <polygon class="cls-7" points="776.9 607.1 776.9 567.8 764.9 567.8 764.9 550.2 746.9 550.2 746.9 531.6 654.9 531.6 654.9 551.8 642.9 551.8 642.9 567.8 631.9 567.8 631.9 644.6 649.6 644.6 649.6 660.1 667.2 660.1 667.2 675.6 725.9 675.6 725.9 699.8 739.9 699.8 739.9 733.6 725.9 733.6 725.9 751.2 683.2 751.2 683.2 737.1 667.2 737.1 667.2 715.8 631.9 715.8 631.9 753.1 651.2 753.1 651.2 769.1 663.1 769.1 663.1 788.6 746.9 788.6 746.9 768.8 761.2 768.8 761.2 751.3 776.9 751.3 776.9 675.6 761.2 675.6 761.2 659.4 746.9 659.4 746.9 643.2 683.2 643.2 683.2 626.4 667.2 626.4 667.2 587.4 683.2 587.4 683.2 568.8 725.9 568.8 725.9 597.6 745.4 597.6 745.4 607.1 776.9 607.1"/>
  <polygon class="cls-1" points="757.4 586.9 757.4 547.6 745.4 547.6 745.4 530 727.4 530 727.4 511.3 635.4 511.3 635.4 531.6 623.4 531.6 623.4 547.6 612.4 547.6 612.4 624.3 630.1 624.3 630.1 639.9 647.8 639.9 647.8 655.3 706.4 655.3 706.4 679.6 720.4 679.6 720.4 713.3 706.4 713.3 706.4 731 663.8 731 663.8 716.9 647.8 716.9 647.8 695.6 612.4 695.6 612.4 732.9 631.8 732.9 631.8 748.9 643.6 748.9 643.6 768.3 727.4 768.3 727.4 748.6 741.7 748.6 741.7 731.1 757.4 731.1 757.4 655.3 741.7 655.3 741.7 639.2 727.4 639.2 727.4 623 663.8 623 663.8 606.2 647.8 606.2 647.8 567.2 663.8 567.2 663.8 548.6 706.4 548.6 706.4 577.3 725.9 577.3 725.9 586.9 757.4 586.9"/>
</svg>